<?xml version="1.0" standalone="no"?>
<!DOCTYPE svg PUBLIC "-//W3C//DTD SVG 20010904//EN"
 "http://www.w3.org/TR/2001/REC-SVG-20010904/DTD/svg10.dtd">
<svg version="1.0" xmlns="http://www.w3.org/2000/svg"
 width="800.000000pt" height="800.000000pt" viewBox="0 0 800.000000 800.000000"
 preserveAspectRatio="xMidYMid meet">

<g transform="translate(0.000000,800.000000) scale(0.100000,-0.100000)"
fill="#000000" stroke="none">
<path d="M3842 7020 c-288 -36 -506 -188 -603 -419 -45 -108 -61 -198 -61
-341 0 -202 44 -351 143 -482 154 -206 442 -312 753 -279 115 13 216 38 300
75 l56 25 0 145 c0 81 -2 146 -4 146 -3 0 -31 -16 -64 -35 -32 -19 -94 -47
-138 -62 -71 -25 -92 -28 -214 -28 -132 0 -136 1 -201 32 -162 79 -244 236
-243 463 0 182 44 300 144 393 90 84 144 102 305 102 116 -1 139 -4 209 -28
44 -16 106 -43 138 -62 33 -19 61 -35 64 -35 2 0 3 66 2 147 l-3 147 -68 29
c-140 58 -358 86 -515 67z"/>
<path d="M2306 6958 c-9 -24 -133 -357 -275 -741 l-258 -697 190 2 190 3 45
133 46 132 302 0 302 0 42 -123 c23 -68 45 -129 49 -136 5 -8 59 -11 192 -9
l185 3 -272 735 -272 735 -225 3 -225 2 -16 -42z m349 -614 c52 -154 95 -280
95 -281 0 -2 -93 -3 -206 -3 -192 0 -206 1 -199 18 12 31 195 565 195 571 1
20 30 -57 115 -305z"/>
<path d="M4490 6260 l0 -740 185 0 185 0 0 315 0 315 305 0 305 0 0 140 0 140
-305 0 -305 0 0 145 0 145 325 0 325 0 0 140 0 140 -510 0 -510 0 0 -740z"/>
<path d="M5550 6440 l0 -190 175 0 175 0 0 190 0 190 -175 0 -175 0 0 -190z"/>
<path d="M5550 5710 l0 -190 175 0 175 0 0 190 0 190 -175 0 -175 0 0 -190z"/>
<path d="M950 4619 c-283 -33 -425 -176 -425 -429 1 -118 32 -185 130 -278 39
-38 93 -83 118 -101 26 -18 46 -35 44 -39 -2 -4 -83 -143 -181 -309 -97 -166
-176 -304 -176 -307 0 -3 89 -6 198 -6 l197 1 163 279 164 280 69 0 69 0 0
-280 0 -280 185 0 185 0 0 740 0 740 -332 -1 c-183 -1 -367 -5 -408 -10z m370
-460 l0 -191 -152 4 c-131 3 -158 6 -187 23 -63 37 -76 66 -76 165 0 104 14
131 85 168 40 20 59 22 187 22 l143 0 0 -191z"/>
<path d="M4731 4280 c-247 -34 -411 -167 -477 -385 -26 -84 -26 -296 0 -380
70 -234 253 -365 542 -389 135 -12 362 19 517 70 l47 16 0 129 c0 71 -2 129
-5 129 -3 0 -27 -11 -53 -24 -119 -59 -267 -96 -393 -96 -154 0 -238 42 -289
143 -16 33 -30 73 -30 89 l0 28 416 0 416 0 -7 113 c-9 128 -24 195 -63 275
-33 68 -115 159 -182 202 -105 67 -288 100 -439 80z m204 -239 c23 -10 53 -33
68 -50 24 -29 57 -114 57 -148 0 -10 -47 -13 -236 -13 l-236 0 7 33 c27 121
119 197 239 197 37 0 77 -8 101 -19z"/>
<path d="M6987 4280 c-249 -31 -424 -165 -490 -375 -31 -101 -31 -299 0 -400
56 -179 193 -304 390 -356 149 -40 379 -27 526 30 l27 11 0 138 0 138 -79 -39
c-71 -36 -90 -40 -173 -45 -134 -7 -196 13 -264 82 -65 67 -88 130 -88 241 0
111 23 174 88 241 61 62 121 84 231 84 83 0 159 -20 233 -61 l52 -29 0 140 0
140 -27 11 c-114 44 -298 65 -426 49z"/>
<path d="M1790 3705 l0 -555 175 0 175 0 0 215 0 215 180 0 180 0 0 -215 0
-215 175 0 175 0 0 555 0 555 -175 0 -175 0 0 -210 0 -210 -180 0 -180 0 0
210 0 210 -175 0 -175 0 0 -555z"/>
<path d="M3140 4037 c0 -236 -10 -360 -37 -442 -35 -107 -100 -174 -178 -183
l-45 -5 0 -268 0 -269 120 0 120 0 0 140 0 140 455 0 455 0 0 -140 0 -140 125
0 125 0 0 270 0 270 -90 0 -90 0 0 425 0 425 -480 0 -480 0 0 -223z m610 -332
l0 -295 -170 0 -169 0 15 43 c31 85 54 235 61 390 l6 157 129 0 128 0 0 -295z"/>
<path d="M5430 3705 l0 -555 175 0 175 0 0 184 0 184 54 46 55 46 178 -230
178 -230 178 0 179 0 -28 38 c-15 20 -128 166 -251 324 -123 158 -223 291
-223 296 0 6 104 108 230 228 127 120 230 220 230 221 0 2 -84 3 -187 3 l-188
0 -195 -185 c-107 -102 -198 -185 -202 -185 -5 0 -8 83 -8 185 l0 185 -175 0
-175 0 0 -555z"/>
<path d="M4560 2120 l0 -290 380 0 380 0 0 290 0 290 -380 0 -380 0 0 -290z"/>
<path d="M5670 2120 l0 -290 940 0 940 0 0 290 0 290 -940 0 -940 0 0 -290z"/>
<path d="M4560 1350 l0 -290 380 0 380 0 0 290 0 290 -380 0 -380 0 0 -290z"/>
<path d="M5670 1350 l0 -290 940 0 940 0 0 290 0 290 -940 0 -940 0 0 -290z"/>
<path d="M4560 550 l0 -290 380 0 380 0 0 290 0 290 -380 0 -380 0 0 -290z"/>
<path d="M5670 550 l0 -290 940 0 940 0 0 290 0 290 -940 0 -940 0 0 -290z"/>
</g>
</svg>
